<svg id="Layer_1" height="512" viewBox="0 0 512 512" width="512" xmlns="http://www.w3.org/2000/svg" data-name="Layer 1"><path d="m334.64 463.51a222.247 222.247 0 0 1 -200.37-21.97 239.163 239.163 0 0 1 31.08-279.51l.92-.06a290.311 290.311 0 0 0 -2.4 37.4c0 117.58 70.09 218.8 170.77 264.14z" fill="#6bbaf9"/><path d="m454.09 356.04a222.667 222.667 0 0 1 -119.45 107.47c-100.68-45.34-170.77-146.56-170.77-264.14a290.311 290.311 0 0 1 2.4-37.4q7.095-.33 14.27-.34c126.58 0 234.19 81.23 273.55 194.41z" fill="#72db77"/><path d="m180.54 161.63q-7.17 0-14.27.34c.02-.21.05-.41.08-.62a3.934 3.934 0 0 1 .06-.48 239.441 239.441 0 0 1 239.91-68.05q3.33 3.075 6.56 6.3c69.52 69.52 83.26 173.7 41.21 256.92-39.36-113.18-146.97-194.41-273.55-194.41z" fill="#ef8e97"/><path d="m406.32 92.82a239.441 239.441 0 0 0 -239.91 68.05 287.869 287.869 0 0 1 46.25-122.41l-.01-.06a221.66 221.66 0 0 1 193.67 54.42z" fill="#f7df77"/><path d="m212.65 38.4.01.06a287.869 287.869 0 0 0 -46.25 122.41 3.653 3.653 0 0 0 -.27.3 289.156 289.156 0 0 0 -79.49-48.51q5.895-6.96 12.47-13.54a220.752 220.752 0 0 1 113.53-60.72z" fill="#e591e3"/><path d="m166.14 161.17c-.28.29-.54.57-.79.86a287.813 287.813 0 0 0 -123.2 34.75 220.277 220.277 0 0 1 44.5-84.12 289.156 289.156 0 0 1 79.49 48.51z" fill="#9c98ed"/><path d="m42.15 196.78a287.813 287.813 0 0 1 123.2-34.75 239.163 239.163 0 0 0 -31.08 279.51 222.257 222.257 0 0 1 -92.12-244.76z" fill="#f4bb6e"/><path d="m129.12 412.88q-7.794-7.794-14.648-16.15a237.689 237.689 0 0 0 19.8 44.81 221.692 221.692 0 0 0 136.88 35.805 220.921 220.921 0 0 1 -142.032-64.465z" fill="#5ab5ff"/><path d="m195.361 162.018-.011.012.113-.007z" fill="#72db77"/><path d="m196.27 161.97c.02-.21.05-.41.08-.62a3.934 3.934 0 0 1 .06-.48 3.653 3.653 0 0 0 -.27.3c-.276.286-.532.562-.779.848h.1z" fill="#fb6771"/><path d="m205.894 49.058a220.854 220.854 0 0 1 65.2-14.391 223.048 223.048 0 0 0 -58.444 3.733l.01.06q-3.495 5.22-6.766 10.598z" fill="#ffeb97"/><path d="m116.65 112.66q5.895-6.96 12.47-13.54a221.021 221.021 0 0 1 76.774-50.062q3.271-5.376 6.766-10.6l-.01-.06a220.752 220.752 0 0 0 -113.53 60.722q-6.57 6.57-12.47 13.54 11.233 4.563 21.981 10.031 3.846-5.103 8.019-10.031z" fill="#ffa4fd"/><path d="m108.631 122.691q-10.743-5.455-21.981-10.031a220.277 220.277 0 0 0 -44.5 84.12 288.151 288.151 0 0 1 35.153-16.2 220.046 220.046 0 0 1 31.328-57.889z" fill="#b7b3ff"/><path d="m72.15 196.78q2.255-8.177 5.153-16.2a288.151 288.151 0 0 0 -35.153 16.2 222.257 222.257 0 0 0 92.12 244.76 237.689 237.689 0 0 1 -19.8-44.81 221.906 221.906 0 0 1 -42.32-199.95z" fill="#ffd399"/><g fill="#f4f8fc"><path d="m248.765 209.955a5.986 5.986 0 0 1 -1.6-.218c-4.1-1.133-8.289-2.174-12.44-3.094a6 6 0 0 1 2.6-11.716c4.35.965 8.736 2.056 13.036 3.243a6 6 0 0 1 -1.594 11.785z"/><path d="m380.011 295.9a5.987 5.987 0 0 1 -4.666-2.223 251.037 251.037 0 0 0 -110.318-78.277 6 6 0 1 1 4.051-11.294 263.012 263.012 0 0 1 115.591 82.02 6 6 0 0 1 -4.658 9.776z"/></g></svg>