<svg id="Capa_1" enable-background="new 0 0 512 512" height="512" viewBox="0 0 512 512" width="512" xmlns="http://www.w3.org/2000/svg"><g><path d="m390.72 331.288h-269.439s-34.704 73.857 22.734 180.708h223.971c57.438-106.851 22.734-180.708 22.734-180.708z" fill="#e8ad8c"/><path d="m367.986 512h-20.953c57.44-106.856 22.735-180.717 22.735-180.717h20.953s34.706 73.861-22.735 180.717z" fill="#e19974"/><g><g><ellipse cx="145.072" cy="458.571" fill="#dc8758" rx="56.916" ry="53.426"/></g><g><ellipse cx="366.928" cy="458.571" fill="#dc8758" rx="56.916" ry="53.426"/></g></g><g><g><path d="m201.99 458.567c0 29.513-25.486 53.433-56.915 53.433-12.537 0-24.116-3.801-33.521-10.25 4.8 1.236 9.848 1.895 15.06 1.895 31.44 0 56.925-23.92 56.925-53.433 0-17.739-9.22-33.469-23.405-43.173 24.127 6.191 41.856 26.918 41.856 51.528z" fill="#c86d36"/></g><g><path d="m423.84 458.567c0 29.513-25.475 53.433-56.915 53.433-12.537 0-24.115-3.801-33.52-10.25 4.8 1.236 9.858 1.895 15.071 1.895 31.429 0 56.915-23.92 56.915-53.433 0-17.739-9.22-33.469-23.405-43.173 24.126 6.191 41.854 26.918 41.854 51.528z" fill="#c86d36"/></g></g><path d="m377.314 317.218c-2.681-13.141-9.009-25.36-18.699-34.695-12.542-12.081-29.538-18.908-46.951-18.865-22.004.054-41.551 10.601-53.846 26.904-.916 1.215-2.719 1.215-3.635 0-12.295-16.304-31.842-26.85-53.846-26.904-17.413-.043-34.409 6.784-46.951 18.865-9.691 9.335-16.018 21.554-18.699 34.695-4.614 22.614.739 46.255 10.773 66.685 8.207 16.708 20.112 31.181 34.201 43.273 17.625 15.127 58.725 46.306 72.071 56.381 2.527 1.908 6.009 1.908 8.536 0 13.346-10.075 54.446-41.255 72.071-56.381 14.089-12.092 25.994-26.565 34.201-43.273 10.035-20.43 15.387-44.071 10.774-66.685z" fill="#c8effe"/><path d="m366.544 383.902c-8.21 16.709-20.119 31.182-34.201 43.276-17.626 15.122-58.728 46.305-72.078 56.379-2.524 1.906-6.006 1.906-8.53 0-2.647-1.998-6.387-4.821-10.816-8.19 13.371-10.085 54.433-41.247 72.048-56.369 14.092-12.083 26.001-26.557 34.201-43.266 10.034-20.428 15.39-44.069 10.775-66.691-2.678-13.134-9.003-25.352-18.697-34.695-3.441-3.307-7.211-6.222-11.229-8.705 11.424 2.854 22.045 8.643 30.595 16.884 9.694 9.333 16.019 21.55 18.697 34.695 4.615 22.613-.731 46.255-10.765 66.682z" fill="#99e6fc"/><g><path d="m367.313 244.976c22.746 11.281 44.094 30.848 48.947 56.789 9.82 52.495-63.459 83.825-105.369 70.36-15.554-4.997-25.459-23.293-21.204-38.934 5.376-19.76 26.857-30.039 43.913-36.324 11.265-4.151 17.4-6.883 29.359-8.056 0 0-5.802-12.097-27.217-20.193z" fill="#dc8758"/></g><g><path d="m310.896 372.128c-.721-.237-1.432-.494-2.132-.783 41.34.237 92.609-29.04 84.296-73.49-3.688-19.717-16.904-35.746-33.026-47.252l7.283-5.624c22.745 11.28 44.09 30.842 48.942 56.791 9.817 52.485-63.457 83.822-105.363 70.358z" fill="#c86d36"/></g><g><g><path d="m144.892 244.625c-22.781 11.209-44.191 30.709-49.126 56.634-9.986 52.464 63.195 84.024 105.147 70.692 15.57-4.948 25.533-23.213 21.327-38.867-5.313-19.777-26.762-30.124-43.798-36.462-11.252-4.187-17.761-6.475-29.716-7.686 0 0 7.591-11.438 28.664-20.168z" fill="#dc8758"/></g></g><path d="m203.006 46.632c-17.291-27.58-32.255-48.412-68.325-46.512-39.259 2.074-73.691 42.189-61.032 80.583 8.153 24.728 27.936 37.514 51.107 47.911z" fill="#dc8758"/><path d="m308.994 46.632c17.292-27.58 32.255-48.412 68.325-46.512 39.26 2.073 73.691 42.188 61.032 80.583-8.153 24.728-27.936 37.514-51.107 47.911z" fill="#dc8758"/><path d="m438.355 80.702c-8.159 24.734-27.937 37.518-51.116 47.912l-11.301-11.836c19.428-9.745 35.478-22.251 42.617-43.894 9.24-28.04-6.624-56.987-31.151-71.378 34.798 7.643 62.499 44.13 50.951 79.196z" fill="#c86d36"/><ellipse cx="256" cy="162.898" fill="#e8ad8c" rx="158.073" ry="135.027"/><g fill="#d77f4a"><circle cx="170.769" cy="182.463" r="15.562"/><circle cx="341.231" cy="182.463" r="15.562"/></g><path d="m414.074 162.897c0 74.572-70.77 135.03-158.074 135.03-22.817 0-44.502-4.131-64.085-11.558 13.732 3.317 28.215 5.099 43.194 5.099 87.304 0 158.074-60.448 158.074-135.02 0-55.102-38.651-102.509-94.051-123.493 66.341 16.04 114.942 68.144 114.942 129.942z" fill="#e19974"/><g><g><path d="m203.007 152.202c-4.143 0-7.5-3.358-7.5-7.5v-20.988c0-4.142 3.357-7.5 7.5-7.5s7.5 3.358 7.5 7.5v20.988c0 4.142-3.358 7.5-7.5 7.5z" fill="#dc8758"/></g><g><path d="m308.993 152.202c-4.143 0-7.5-3.358-7.5-7.5v-20.988c0-4.142 3.357-7.5 7.5-7.5s7.5 3.358 7.5 7.5v20.988c0 4.142-3.357 7.5-7.5 7.5z" fill="#dc8758"/></g></g><g><path d="m256 245.981c-4.143 0-7.5-3.358-7.5-7.5v-27.229c0-4.142 3.357-7.5 7.5-7.5s7.5 3.358 7.5 7.5v27.229c0 4.143-3.357 7.5-7.5 7.5z" fill="#dc8758"/></g><path d="m364.535 289.12c-10.559 1.38-20.953 4.069-30.935 7.747-11.713 4.316-25.496 10.507-34.726 20.356h-85.635c-9.209-9.951-23.055-16.225-34.798-20.603-9.899-3.678-20.232-6.397-30.719-7.819 1.72-2.204 3.616-4.306 5.666-6.274 12.537-12.083 29.534-18.913 46.953-18.872 22.004.062 41.546 10.6 53.845 26.907.907 1.216 2.719 1.216 3.626 0 12.3-16.307 31.841-26.845 53.845-26.907 17.42-.041 34.417 6.789 46.953 18.872 2.145 2.06 4.122 4.264 5.925 6.593z" fill="#c8effe"/><path d="m282.752 167.019c-7.904-3.723-45.6-3.723-53.505 0-12.146 5.721-12.998 20.518-8.188 31.595 3.833 8.828 10.712 14.854 18.964 18.366 10.165 4.326 21.787 4.326 31.952 0 8.252-3.512 15.131-9.538 18.964-18.366 4.811-11.077 3.959-25.874-8.187-31.595z" fill="#766e6e"/><path d="m290.942 198.612c-3.832 8.828-10.713 14.854-18.965 18.367-10.167 4.327-21.788 4.327-31.955 0-.309-.134-.608-.258-.907-.402 4.244-.371 8.437-1.401 12.413-3.09 8.251-3.513 15.133-9.539 18.965-18.357 4.584-10.569 4.017-24.517-6.583-30.749 8.426.33 15.823 1.215 18.841 2.637 12.147 5.727 13.002 20.52 8.191 31.594z" fill="#5b5555"/></g></svg>