<svg height="512" viewBox="0 0 58 58" width="512" xmlns="http://www.w3.org/2000/svg"><g id="Page-1" fill="none" fill-rule="evenodd"><g id="050---Toy-Car" fill-rule="nonzero"><path id="Shape" d="m5.22 51h-1.22c-2.209139 0-4-1.790861-4-4v-5c.00038596-4.4067646 3.19160629-8.1651249 7.54-8.88.85469248-.1165144 1.52829212-.7860316 1.65-1.64l1.15-9.22c.3754716-3.0218463 2.955005-5.2832373 6-5.26h17.25c2.6253667-.001413 4.9467659 1.7041875 5.73 4.21l3.27 10.46c.2420214.7910816.9727253 1.3309905 1.8 1.33h4.61l8.06 5c.6175812 1.2430122.9392983 2.6120211.94 4v5c0 2.209139-1.790861 4-4 4z" fill="#e64c3c"/><path id="Shape" d="m23 29h-9.47l.78-6.25c.1267071-1.0059579.9861249-1.7579484 2-1.75l6.69-.0000624z" fill="#9fc9d3"/><path id="Shape" d="m27 20.9999989 6.59.0000011c.8742182-.0009272 1.6477349.5660484 1.91 1.4l2.06 6.6h-10.56z" fill="#9fc9d3"/><path id="Shape" d="m31 36h-4c-.5522847 0-1-.4477153-1-1s.4477153-1 1-1h4c.5522847 0 1 .4477153 1 1s-.4477153 1-1 1z" fill="#ecf0f1"/><path id="Shape" d="m17 36h-4c-.5522847 0-1-.4477153-1-1s.4477153-1 1-1h4c.5522847 0 1 .4477153 1 1s-.4477153 1-1 1z" fill="#ecf0f1"/><path id="Shape" d="m31 0c-1.7335084.00146987-3.381663.75261998-4.52 2.06-.3796661.43050087-.9259988.67712434-1.5.67712434s-1.1203339-.24662347-1.5-.67712434c-1.7957195-2.05588774-4.752848-2.64054222-7.1958199-1.42268707-2.442972 1.21785514-3.7559853 3.93123409-3.1950617 6.60268459.5609237 2.67145049 2.8543918 4.62757768 5.5808816 4.76000248 1.1649515.0714909 2.3246578-.2071172 3.33-.8v5.8h6v-5.81c1.0053422.5928828 2.1650485.8714909 3.33.8 3.2378495-.1869736 5.7410574-2.91308034 5.6518276-6.15509617-.0892297-3.24201584-2.7385955-5.82630864-5.9818276-5.83490383zm-12 8c-1.1045695 0-2-.8954305-2-2s.8954305-2 2-2 2 .8954305 2 2c0 .53043298-.2107137 1.03914081-.5857864 1.41421356-.3750728.37507276-.8837806.58578644-1.4142136.58578644zm12 0c-1.1045695 0-2-.8954305-2-2s.8954305-2 2-2 2 .8954305 2 2c0 .53043298-.2107137 1.03914081-.5857864 1.41421356-.3750728.37507276-.8837806.58578644-1.4142136.58578644z" fill="#f0c419"/><path id="Shape" d="m57.06 38h-6.06c-1.1045695 0-2-.8954305-2-2v-3c3.4181669.0008575 6.5408148 1.9379841 8.06 5z" fill="#f3d55b"/><path id="Shape" d="m23 49c-.0012575.672635-.0750169 1.3431748-.22 2-.9248394 4.1056658-4.5714587 7.0222235-8.78 7.0222235s-7.85516064-2.9165577-8.78-7.0222235c-.14498314-.6568252-.21874253-1.327365-.22-2 .00000007-4.9705627 4.0294373-8.9999999 9-8.9999999s8.9999999 4.0294372 9 8.9999999z" fill="#464f5d"/><path id="Shape" d="m53 49c-.0012575.672635-.0750169 1.3431748-.22 2-.9248394 4.1056658-4.5714587 7.0222235-8.78 7.0222235s-7.8551606-2.9165577-8.78-7.0222235c-.1449831-.6568252-.2187425-1.327365-.22-2 0-4.9705627 4.0294373-9 9-9s9 4.0294373 9 9z" fill="#464f5d"/><g fill="#ecf0f1"><circle id="Oval" cx="44" cy="49" r="4"/><circle id="Oval" cx="14" cy="49" r="4"/></g></g></g></svg>